<?xml version="1.0" encoding="UTF-8"?>
<svg width="1024" height="1024" viewBox="0 0 1024 1024" fill="none" xmlns="http://www.w3.org/2000/svg">
  <title>LintPDF-style bracket logo</title>
  <desc>Vector recreation of the uploaded flat bracket logo.</desc>
  <!-- Background -->
  <rect x="18" y="18" width="988" height="988" rx="165" fill="#4087F7"/>
  <!-- Center content area -->
  <!-- Brackets -->
  <path d="M210 270
           C210 236 236 210 270 210
           H358
           C380 210 398 228 398 250
           C398 272 380 290 358 290
           H266
           V734
           H358
           C380 734 398 752 398 774
           C398 796 380 814 358 814
           H270
           C236 814 210 788 210 754
           V270Z"
        fill="#F2F2F2"/>
  <path d="M814 270
           C814 236 788 210 754 210
           H666
           C644 210 626 228 626 250
           C626 272 644 290 666 290
           H758
           V734
           H666
           C644 734 626 752 626 774
           C626 796 644 814 666 814
           H754
           C788 814 814 788 814 754
           V270Z"
        fill="#F2F2F2"/>
  <!-- Text lines -->
  <rect x="347" y="356" width="330" height="36" rx="18" fill="#93C5FD"/>
  <rect x="392" y="455" width="240" height="36" rx="18" fill="#93C5FD"/>
  <rect x="366" y="554" width="294" height="36" rx="18" fill="#93C5FD"/>
</svg>
