<?xml version="1.0" encoding="UTF-8"?>
<svg id="Layer_1" xmlns="http://www.w3.org/2000/svg" xmlns:xlink="http://www.w3.org/1999/xlink" version="1.1" viewBox="0 0 598.3 645.9">
  <!-- Generator: Adobe Illustrator 30.0.0, SVG Export Plug-In . SVG Version: 2.1.1 Build 123)  -->
  <defs>
    <style>
      .st0 {
        fill: #162d60;
      }

      .st1 {
        fill: url(#linear-gradient2);
      }

      .st2 {
        fill: url(#linear-gradient1);
      }

      .st3 {
        fill: url(#linear-gradient3);
      }

      .st4 {
        fill: url(#linear-gradient6);
      }

      .st5 {
        fill: url(#linear-gradient8);
      }

      .st6 {
        fill: url(#linear-gradient7);
      }

      .st7 {
        fill: url(#linear-gradient5);
      }

      .st8 {
        fill: url(#linear-gradient4);
      }

      .st9 {
        fill: #cee7f2;
      }

      .st10 {
        fill: url(#linear-gradient);
      }

      .st11 {
        fill: #101d33;
      }

      .st12 {
        fill: #5395ce;
      }

      .st13 {
        fill: #95d0eb;
      }

      .st14 {
        fill: #fff;
      }

      .st15 {
        fill: #3b6fb5;
      }

      .st16 {
        fill: #d7e4ef;
      }

      .st17 {
        fill: #78bce1;
      }

      .st18 {
        fill: #0c1f3e;
      }

      .st19 {
        fill: #1a3a7a;
      }
    </style>
    <linearGradient id="linear-gradient" x1="781" y1="-733.4" x2="451.2" y2="-804.5" gradientTransform="translate(-107.9 230.7) scale(.5 -.5)" gradientUnits="userSpaceOnUse">
      <stop offset="0" stop-color="#6f9ac7"/>
      <stop offset="1" stop-color="#bfcfe0"/>
    </linearGradient>
    <linearGradient id="linear-gradient1" x1="902.1" y1="-711.1" x2="1054.5" y2="-843.5" gradientTransform="translate(-107.9 230.7) scale(.5 -.5)" gradientUnits="userSpaceOnUse">
      <stop offset="0" stop-color="#729bc5"/>
      <stop offset="1" stop-color="#adc3db"/>
    </linearGradient>
    <linearGradient id="linear-gradient2" x1="971.3" y1="-571.4" x2="870.8" y2="-565.9" gradientTransform="translate(-107.9 230.7) scale(.5 -.5)" gradientUnits="userSpaceOnUse">
      <stop offset="0" stop-color="#4486bf"/>
      <stop offset="1" stop-color="#529ed2"/>
    </linearGradient>
    <linearGradient id="linear-gradient3" x1="799.4" y1="60.3" x2="801.9" y2="208.8" gradientTransform="translate(-107.9 230.7) scale(.5 -.5)" gradientUnits="userSpaceOnUse">
      <stop offset="0" stop-color="#4584c5"/>
      <stop offset="1" stop-color="#6db9e2"/>
    </linearGradient>
    <linearGradient id="linear-gradient4" x1="894.2" y1="88.9" x2="858.3" y2="122.4" gradientTransform="translate(-107.9 230.7) scale(.5 -.5)" gradientUnits="userSpaceOnUse">
      <stop offset="0" stop-color="#3161a7"/>
      <stop offset="1" stop-color="#417cc1"/>
    </linearGradient>
    <linearGradient id="linear-gradient5" x1="1045.6" y1="-61.4" x2="1005.7" y2="-71.9" gradientTransform="translate(-107.9 230.7) scale(.5 -.5)" gradientUnits="userSpaceOnUse">
      <stop offset="0" stop-color="#5fb1d7"/>
      <stop offset="1" stop-color="#81d7ea"/>
    </linearGradient>
    <linearGradient id="linear-gradient6" x1="419.7" y1="13.5" x2="204.6" y2="34.3" gradientTransform="translate(-107.9 230.7) scale(.5 -.5)" gradientUnits="userSpaceOnUse">
      <stop offset="0" stop-color="#4387c3"/>
      <stop offset="1" stop-color="#80c5e7"/>
    </linearGradient>
    <linearGradient id="linear-gradient7" x1="1122.3" y1="-2.4" x2="1425.8" y2="110.8" gradientTransform="translate(-107.9 230.7) scale(.5 -.5)" gradientUnits="userSpaceOnUse">
      <stop offset="0" stop-color="#d9eff4"/>
      <stop offset="1" stop-color="#fff"/>
    </linearGradient>
    <linearGradient id="linear-gradient8" x1="1163.5" y1="37.7" x2="1281.8" y2="50.6" gradientTransform="translate(-107.9 230.7) scale(.5 -.5)" gradientUnits="userSpaceOnUse">
      <stop offset="0" stop-color="#9acce8"/>
      <stop offset="1" stop-color="#daf2f5"/>
    </linearGradient>
  </defs>
  <path class="st11" d="M530.4,366.9c-21.6,25.5-50.7,47.8-77.6,61.4-9.7,4.9-20,8.8-30,12.8,7.2,1.2,14.6,3.4,21.8,5,9.1,2,18.3,3.5,27.5,4.6-6.8,6.9-13.2,13.6-20.7,19.5-22.8,17.8-50.6,26.1-76.9,22.1-12.1-1.8-29-13-31.3-30.5-2.6-19.5-3.5-41.1-4.9-61-2.8-38.1-5.3-76.3-7.6-114.5h48.1c9,.1,21.6,1.3,30.1-1.2,24.8-7.3,22.7-39.5-1.7-44.4-8.9-1.8-18.8-.9-27.7-1h-51.5c-.3-6.9-.7-13.6-1.1-20.4,12.5-8,24.3-16.3,29.1-34.6,8-31-13.9-52.7-33.3-61-27.3-11.7-66.1-6.5-84.2,26.1-13.4,24.2.7,52,17.7,63.6,2.7,1.9,5.9,3.9,8.5,5.8-.8,6.4-1.3,14.2-2.2,20.2h-47c-12.8-.2-47.2-5.3-48.1,22.3-.5,15.5,15.7,23.9,25.4,24,6.7,0,13.8.2,20.6.2,15.4,0,30.9.2,46.3.4-1.9,41.5-4.3,82.9-7.2,124.3-1.1,17.3-1.9,35.3-4.3,52.3-.6,4.1-5.6,13.9-8.2,16.4-29.1,28.1-77.4,10.4-105-13.3-5.8-4.9-10.6-11.2-16.2-15.8,10.7-.7,19.9-2.6,30.5-5,5.6-1.3,13.1-3.5,18.5-4-43.9-17.7-71.1-34.8-107.3-74.3-22.1,43.8-25.5,95.5-1.5,139.4,6.3-8.8,13.8-19.1,19.3-28.7,16.9,48.3,57.5,84,94.2,101.8l6.9,3.3c6.6,1.9,13.6,5.2,20.3,7.3,32.2,10,67.2,24.7,95.6,48l.5-.4c3.6-3.8,10-8.1,14.2-11,28.7-19.3,63.8-32,95.6-39.5,9.6-3.5,16.7-7.2,26-11.3,34.9-20.8,65.9-50.9,83.3-97.7,6.4,9.5,13.3,18.8,19.6,28.3,3-6.5,6.2-13.2,8.3-20.3,10.4-35.6,7.1-79.2-8.5-111.3-1.3-2.6-2.6-5.3-3.8-8ZM199.7,264.7c-4.9,11.6-28.6,6.4-20.2-9.7.3-.6.7-1.3,1.1-1.9,4.2-5.5,8.4-4.7,13.7-3.7,2.6,1.5,4.9,3.4,5.9,7.2.7,2.7.5,5.6-.5,8.1ZM409.5,258c-.9-3.7-.9-4.2-.3-8.1,11.7,8.1,6.9,28.4-7.8,27.3-1.8-.3-4.3-.4-5.7-1.7l.4-1c2.4-1.4,6.3-.9,9.1-1.5,6.3-1.4,5.9-8.5,4.3-15ZM242.3,175.4c0-1.4-.1-2.7-.1-4.1-.2-9.2,3.5-19.6,8.4-26.1,15.5-20.4,42.2-23,62.4-17,5.5,1.6,16.2,6.5,20.2,11.7,10.9,7.3,15.9,20.6,15.1,36.6-.9,10.7-5,17.1-11.1,23.6-4.5,4.8-17.4,14.4-23.1,11.6,1.5,9.5,2.1,17.8,2.5,27.5-7,.3-14.5.2-21.5.2-6.6-.2-13.5,0-20.2,0,2-20,1.2-23.4,10.4-39.3,2.4.6,3.4.9,5.9.9,8.6-.5,9.6.5,18.9-2.1,5.2-1.5,10-4.9,13.8-9.9,4.6-6,6.1-12.1,6.2-20.4-1.4-8.9-4.2-14.9-10.2-20-15.8-13.5-44.8-12.5-56.4,9.2-6.7,12.6-1,29.2,8.2,36,2.8,2.3,8.2,4,10.2,6.3-.8,1.2-.3.8-1.4,1.4-1.4,1.7-4.6,7.7-5.8,10-15.2-1.5-28.3-16.6-32.4-36.1ZM292.2,147.6c29.3-4.4,44,38.7,7,46.4-36.1,1.5-41.1-41-7-46.4ZM207.5,264.2c.7-8.4-.1-10.3-4.6-15.8l120.3.5h49.4c11.2-.1,23.7-.3,34.9.2-2.6,2.8-5.2,5.3-7.9,7.9l-.3,7.9c-9.1,0-21.5.4-30.4-.7-17,.7-37.8.5-54.9,0h-106.6ZM532.3,485.3c-3.9-7.2-7.1-13.5-10.6-21-2.7-5.8-6.4-14.9-9.4-20.1-1.2,2.1-1.3,7.9-1.8,10.9-.8,4.9-1.9,9.7-3.3,14.3-3.4,11.2-15,31-21.2,39.9-19,27.3-42.1,49-68.5,61.3-12.1,5.7-26.8,7.6-39.2,11.7-21,6.8-43.8,15.2-63.7,26.7-2,1.1-19.1,12.6-19.5,13.1l-.6.3c-22.5-16.2-47.8-28.9-72.6-37.3-26.1-8.9-45.9-12.7-70-30.9-28.4-21.5-54-50.5-66.8-91.9-2.3-7.4-1.2-15.9-2.7-21.8-7.5,11.7-15.1,31.1-21.6,44.8-.9-3.5-1.8-7-2.5-10.5-4.9-22.7-5.2-46.9.2-69.5.9-3.7,4.1-18.5,7-19.6l.6.9c12.6,14.9,34.9,31.6,50.4,40.6,5.1,3,11.1,5.4,15.9,8.3,1.6.7,3.5,1.4,5.1,2.1-8,1.2-15.3,1.2-23,1.4-5.1.2-27.3-1.7-30.6,0,1.5,1.3,2.9,1.5,4.2,2.9,17.6,7.8,24.7,19.9,39.9,32.7,23.2,19.4,49.3,31.5,76.9,31.2,13.3-.1,26.2-2.1,38.2-10.5.9-.6,4.2-3.2,4.9-3.5,5.3-4.8,12.6-15.8,13.9-24.4,2.3-15.2,2.4-31.7,3.3-47.2,1.6-24.6,3-49.2,4.4-73.8.8-13.5,1.9-28.9,2.2-42.3l.9-17.8c7.5,0,15.3-.2,22.7.3,10.3.5,14.8,0,23.6,8.2l8.1,118.8c.7,9.6,1.3,19.2,1.9,28.9.6,9.8.9,19.8,2.7,29.3,5.9,16.9,13.8,19.3,23.9,28.2,1.8.8,3.6,1.5,5.5,2.2,31.9,11.8,75.8-4.6,103.1-28.1,12.4-10.7,22.6-23.5,35.1-32.9l.6-2c-16.7.2-29.9.5-46.5-1.7,20.2-6.3,57.9-31.5,72.6-50.6,4.7,2.8,9.7,33.4,10.7,41.1,2.6,19.4-.8,38.5-4.2,57.3Z"/>
  <path class="st11" d="M179.3,582.7l.3,1c.9.4,1.7.8,2.7,1.2v.3c-6.3-.6-23.7-3.8-28.6-3.3.2.2,7.4,3,8.3,3.1-11.1,1.9-39.1,1.3-50,9.5-.8.6-.9,2.6-.9,3.9,1.6,5.7,10.3,8.4,14.4,9.1,7-1,41.1,4.1,49.7,5.9,26.4,5.6,60.1,9.8,85.2,19.5,10.6,1.7,24.5,4.6,34.9,5-28.3-23.3-63.4-38.1-95.6-48-6.7-2.1-13.7-5.3-20.3-7.3Z"/>
  <path class="st10" d="M179.3,582.7l.3,1c.9.4,1.7.8,2.7,1.2v.3c-6.3-.6-23.7-3.8-28.6-3.3.2.2,7.4,3,8.3,3.1-11.1,1.9-39.1,1.3-50,9.5-.8.6-.9,2.6-.9,3.9,1.6,5.7,10.3,8.4,14.4,9.1,7-1,41.1,4.1,49.7,5.9,26.4,5.6,60.1,9.8,85.2,19.5,10.6,1.7,24.5,4.6,34.9,5-28.3-23.3-63.4-38.1-95.6-48-6.7-2.1-13.7-5.3-20.3-7.3Z"/>
  <polygon class="st16" points="106 610.9 106 610.9 106 610.9 106 610.9"/>
  <path class="st16" d="M125.5,607.6c-5.5.3-14.5.1-19.4,2.3v1c4,1.7,14.6,2.5,19.1,3.1,33.7,4.4,67.3,7.5,100.9,13.8,10.6,2,23.9,5.6,34.4,5.2-25.1-9.7-58.8-13.9-85.2-19.5-8.6-1.8-42.7-7-49.7-5.9Z"/>
  <path class="st16" d="M105.7,610.8c0,0,.2,0,.3.1v-.9c-.1,0-.3.8-.3.8Z"/>
  <path class="st11" d="M399,615.9c10.4-1.9,21.1-4.6,31.4-6.4,9.1-1.5,18.3-2.9,27.3-6.1,1.1-.4,3.3-1.4,3.6-3,.3-1.1.5-3.4-.2-4.2-8.1-8.4-24-5.7-33.1-6.6-5.4-1-10.8-2.3-16.1-3.3-2.4-.4-3.4,1.9-6.4.7-31.7,7.5-66.8,20.2-95.6,39.5-4.3,2.9-10.6,7.2-14.2,11,5.2,1.1,26.4-3.5,32.9-4.6,9.2-4.3,24.8-7,34.7-8.8,10.3-4.1,24.8-6.3,35.6-8.3Z"/>
  <path class="st2" d="M399,615.9c10.4-1.9,21.1-4.6,31.4-6.4,9.1-1.5,18.3-2.9,27.3-6.1,1.1-.4,3.3-1.4,3.6-3,.3-1.1.5-3.4-.2-4.2-8.1-8.4-24-5.7-33.1-6.6-5.4-1-10.8-2.3-16.1-3.3-2.4-.4-3.4,1.9-6.4.7-31.7,7.5-66.8,20.2-95.6,39.5-4.3,2.9-10.6,7.2-14.2,11,5.2,1.1,26.4-3.5,32.9-4.6,9.2-4.3,24.8-7,34.7-8.8,10.3-4.1,24.8-6.3,35.6-8.3Z"/>
  <path class="st9" d="M411.9,586.4c5.4,1,10.8,2.3,16.1,3.3,9.1.9,25-1.8,33.1,6.6.7.8.5,3.1.2,4.2-.4,1.5-2.5,2.6-3.6,3-9,3.2-18.2,4.5-27.3,6.1-10.4,1.8-21,4.5-31.4,6.4-10.8,2-25.3,4.2-35.6,8.3,9.3.5,34.4-5.7,44.7-7.4,10.3-1.7,24.2-3.3,34.1-5.5,9.8-2.1,19.8-2.7,29.5-6,2.6-.9,3.7-1.7,5.3-4.9.5-1,.7-3.2.2-3.9-8.7-12.8-52.3-9.1-60.5-12.7,2.9-1.6,13.6-5,14.8-8.1-9.3,4.2-16.4,7.8-26,11.3,2.9,1.1,4-1.1,6.4-.7Z"/>
  <path class="st16" d="M363.4,624.2c-9.9,1.8-25.5,4.6-34.7,8.8,8.4,2.2,29.7-4.8,39.3-6.1,12.3-1.7,25-4.6,37.3-6.8,8.4-1.5,16.8-1.2,25.2-1.8,6.5-.9,44.5-3.3,47.6-6.8-1.6-.2-1.7-.2-3.2-.8-4.3-5.8-6.8-1.3-11.5-.7-6.2.8-15,2.7-21.1,1.3-9.9,2.2-23.8,3.8-34.1,5.5-10.3,1.7-35.5,7.8-44.7,7.4Z"/>
  <path class="st0" d="M295.1,423.6v147.7c.3,5.8.1,11.9,0,17.7,16.4-14.8,25.8-18.8,45.2-24.7,3.7-1.1,14.3-4.4,17.4-6.6-2.7-.8-5.9-1.1-8.8-1.9-16.4-4.4-22.1-20.7-21.2-41.6-.8-6.4,0-15.3.6-21.7,0-1.8.9-9.6,1.1-11.9.3-3.5.4-6.1,2-8.9-1.9-9.5-2.2-19.5-2.7-29.3-.6-9.6-1.2-19.3-1.9-28.9l-8.1-118.8c-8.8-8.2-13.3-7.7-23.6-8.2l-.3,19.3c.2,39.3.3,78.5.2,117.8Z"/>
  <path class="st13" d="M257.7,513.9l1-.8c2,2.1,6.8,11.5,9.2,14.8,11.4,15.6,14.3,15.9,26.8,2.5,0,12.7-.3,28.3,0,40.7l.4.2v-147.7c0-39.3,0-78.5-.2-117.8-6.4-4.7-8.2-6.2-15.5-7.1-2.7,2.4-6.8,4.1-7.8,5.3-.3,13.4-1.4,28.8-2.2,42.3-1.3,24.6-2.8,49.2-4.4,73.8-1,15.5-1,32-3.3,47.2-1.3,8.6-8.6,19.6-13.9,24.4l.6,1.7c2.1,1.3,7.4,19.4,9.4,20.5ZM275,446.4c.4-40.6.6-81,2.9-121.5.4-6.8.3-12.7,1.7-19.4,7.8,8.3-2.5,134-3.9,151.3v1h-.4c-.5-3.9-.3-7.4-.2-11.3Z"/>
  <path class="st17" d="M294.9,305.9l.3-19.3c-7.5-.5-15.2-.3-22.7-.3l-.9,17.8c1.1-1.2,5.1-2.9,7.8-5.3,7.3.9,9.2,2.3,15.5,7.1Z"/>
  <path class="st14" d="M275.5,457.7v-1c1.5-17.3,11.8-143,4-151.3-1.4,6.7-1.3,12.6-1.7,19.4-2.3,40.5-2.5,81-2.9,121.5,0,3.9-.3,7.4.2,11.3h.4Z"/>
  <path class="st15" d="M95.6,457.6c1.8.4,12,14.7,14.9,17.7,11.4,11.9,26.4,26.6,38.8,36.1,11.2,6.8,20.1,14.1,32.2,20.4,9.2,4.8,28.6,10.7,35.5,15.8-1.8,1.1-3.6,1.9-5.1,3.6,25.6,10.8,62.4,16.7,83.2,37.7,0-5.8.2-11.9,0-17.7l-.4-.2c0,1.7.4,4.2-.5,5.4-4-4.9-6.1-9.7-11.5-14.2-19.2-16.1-44.3-22.6-65.4-33.5-5.1-2.6-9.9-4.2-14.7-7.3,16.4,3,33.5,9.3,50,12.9,7.5,1.6,14.4,4.5,22.2,5.8-11.9-8.4-32.6-24.6-26.4-46.8l-.6-1.7c-.6.3-4,2.9-4.9,3.5-12,8.4-24.9,10.4-38.2,10.5-27.6.2-53.7-11.8-76.9-31.2-15.2-12.7-22.3-24.8-39.9-32.7-.4,6.7,4.5,11.1,7.8,15.7Z"/>
  <path class="st0" d="M295.2,589c-20.8-21-57.6-27-83.2-37.7-23.9-9.4-46.7-18.5-67.9-37-17-11.8-37.2-36.2-48.5-56.7-3.3-4.6-8.1-9-7.8-15.7-1.3-1.3-2.7-1.6-4.2-2.9h-.5c0-.1-.8,1.5-.8,1.5,1.5,5.9.4,14.4,2.7,21.8,12.8,41.4,38.3,70.4,66.8,91.9,24.1,18.2,43.9,22,70,30.9,24.8,8.4,50,21.2,72.6,37.3l.6-.3c.6-8.1.2-24.4.2-33.1Z"/>
  <path class="st14" d="M294.7,530.4c-12.4,13.4-15.4,13.1-26.8-2.5-2.4-3.3-7.2-12.7-9.2-14.8l-1,.8c-1.9-1.1-7.3-19.2-9.4-20.5-6.1,22.1,14.5,38.4,26.4,46.8-7.8-1.2-14.7-4.1-22.2-5.8-16.5-3.6-33.6-9.9-50-12.9,4.8,3.1,9.7,4.7,14.7,7.3,21.2,10.9,46.3,17.5,65.4,33.5,5.4,4.5,7.5,9.3,11.5,14.2.8-1.2.5-3.7.5-5.4-.4-12.4,0-28,0-40.7Z"/>
  <path class="st17" d="M217,547.7c-6.9-5.1-26.4-11-35.5-15.8-12.1-6.3-21-13.6-32.2-20.4-1.4.8-4.3,1.9-5.2,2.9,21.2,18.6,44,27.7,67.9,37,1.5-1.8,3.2-2.6,5.1-3.6Z"/>
  <path class="st14" d="M110.5,475.3c-2.9-3-13.1-17.3-14.9-17.7,11.2,20.5,31.4,44.9,48.5,56.7,1-.9,3.8-2.1,5.2-2.9-12.4-9.5-27.4-24.2-38.8-36.1Z"/>
  <path class="st18" d="M506.7,448.3c-2.5,3.5-13.1,19.2-15.4,20.2-32.4,43.4-71.7,68.1-115.9,83.2-2.9,1.6-14.3,5.3-17.6,6.1-3.1,2.2-13.7,5.5-17.4,6.6-19.4,5.9-28.8,9.8-45.2,24.7,0,8.7.4,25-.2,33.1.4-.5,17.6-12,19.5-13.1,19.9-11.5,42.6-19.9,63.7-26.7,12.5-4,27.1-6,39.2-11.7,26.4-12.4,49.6-34.1,68.5-61.3,6.2-9,17.8-28.7,21.2-39.9,1.4-4.6,2.5-9.4,3.3-14.3.5-3,.6-8.8,1.8-10.9l-1-1.6c-1.7,2.3-2.6,3.8-4.6,5.7Z"/>
  <path class="st15" d="M329.5,480.6c-.2,2.3-1.2,10.2-1.1,11.9l.4,1c1.1,3.1,1.7,6.5,2.8,9.6,5.7,15.9,17.4,22.7,30.1,23.7,6.5.5,12.6-.7,19-.9-21.2,14.8-38.1,15.8-52.9-11.8-.9,21,4.8,37.2,21.2,41.6,2.9.8,6,1.1,8.8,1.9,3.3-.8,14.7-4.5,17.6-6.1v-.2c0-.1,21.2-12.4,23.6-13.9,22.7-13.5,44.7-29.4,65.7-46.9,5-4.2,24.3-21.3,26.6-22.2,2.4-1,13-16.7,15.4-20.2-1.9-5-3.3-7.5-7.7-7.2-12.5,9.4-22.7,22.2-35.1,32.9-27.3,23.5-71.2,39.9-103.1,28.1-1.8-.7-3.7-1.4-5.5-2.2-9.3-.5-20.4-9.5-25.9-19.3Z"/>
  <path class="st15" d="M380.7,526c-6.4.3-12.6,1.4-19,.9-12.7-1-24.4-7.9-30.1-23.7-1.1-3.1-1.7-6.5-2.8-9.6l-.4-1c-.6,6.4-1.4,15.3-.6,21.7,14.8,27.5,31.7,26.5,52.9,11.8Z"/>
  <path class="st1" d="M380.7,526c-6.4.3-12.6,1.4-19,.9-12.7-1-24.4-7.9-30.1-23.7-1.1-3.1-1.7-6.5-2.8-9.6l-.4-1c-.6,6.4-1.4,15.3-.6,21.7,14.8,27.5,31.7,26.5,52.9,11.8Z"/>
  <path class="st19" d="M355.4,500c-10.1-8.9-18-11.3-23.9-28.2-1.6,2.8-1.7,5.4-2,8.9,5.5,9.8,16.6,18.8,25.9,19.3Z"/>
  <path class="st14" d="M399,537.5c-2.4,1.4-23.7,13.8-23.7,13.9v.2c44.3-15,83.7-39.7,116-83.2-2.2.8-21.6,18-26.6,22.2-21,17.5-42.9,33.4-65.7,46.9Z"/>
  <path class="st19" d="M525.8,386.8c-1.6,13.1-10.7,43-14.6,55.3-3.8-4.1-6.8-3.3-11.5-3l-.6,2c4.4-.4,5.8,2.2,7.7,7.2,1.9-2,2.9-3.4,4.6-5.7l1,1.6c3,5.2,6.8,14.3,9.4,20.1,3.5,7.5,6.7,13.8,10.6,21,3.4-18.8,6.8-37.9,4.2-57.3-1-7.7-6-38.3-10.7-41.1Z"/>
  <path class="st13" d="M511.2,442.1c3.9-12.3,13-42.2,14.6-55.3-14.8,19.1-52.5,44.4-72.6,50.6,16.7,2.1,29.8,1.9,46.5,1.7,4.8-.3,7.7-1.1,11.5,3ZM496.8,420.8c-3.8,3.4-12,6.8-16.6,8.9l-.4-.4c.4-.5,14.7-8.4,17-9.8l.3.2-.3,1Z"/>
  <path class="st9" d="M479.8,429.3l.4.4c4.6-2.1,12.9-5.5,16.6-8.9l.3-1-.3-.2c-2.3,1.4-16.6,9.2-17,9.8Z"/>
  <path class="st19" d="M70.5,403.1l-.9-3.2c-1.3-3-3.1-10-3.5-13.4l-.6-.9c-2.9,1.1-6.1,15.9-7,19.6-5.3,22.6-5,46.8-.2,69.5.8,3.5,1.6,7,2.5,10.5,6.5-13.7,14.1-33.1,21.6-44.8l.8-1.7c-3.9-6.8-10.6-27.9-12.7-35.7Z"/>
  <path class="st13" d="M121.4,431.4c-1.3.9-2.4,1.9-3.8,2-11.4-2-24.7-8.5-34.4-16.6-4.8-4-8.8-12.6-12.7-13.6,2.1,7.8,8.8,28.9,12.7,35.7h.5c3.4-1.5,25.6.4,30.6.2,7.7-.2,15-.3,23-1.4-1.6-.7-3.4-1.4-5.1-2.1-2.4.6-8.3-2.8-10.9-4.1Z"/>
  <path class="st17" d="M79.1,409c6.6,7.2,13.1,12.1,21,16.5,3.4,1.9,15.6,5.1,17.5,7.9,1.4,0,2.4-1.1,3.8-2,2.6,1.3,8.5,4.7,10.9,4.1-4.7-2.9-10.8-5.4-15.9-8.3-15.5-9-37.7-25.7-50.4-40.6.4,3.4,2.2,10.4,3.5,13.4,2.1.5,7.5,6.8,9.6,9Z"/>
  <path class="st14" d="M83.2,416.8c9.7,8.1,23,14.6,34.4,16.6-1.9-2.8-14.1-6-17.5-7.9-7.8-4.4-14.4-9.3-21-16.5-2-2.2-7.5-8.5-9.6-9l.9,3.2c3.9,1.1,7.9,9.6,12.7,13.6Z"/>
  <path class="st11" d="M249.4,186c4.1,5.6,6.8,7.1,11.6,10.8,6.6,4.9,13.7,2.6,19.5,4.8,1.1-.7.6-.2,1.4-1.4-2-2.3-7.4-4-10.2-6.3-9.2-6.8-15-23.4-8.2-36,11.6-21.7,40.6-22.7,56.4-9.2,6.1,5.2,8.8,11.2,10.2,20,2.2-1.3,7.5-1.3,10.9-2.2,5.7-6.5-6.1-21.7-7.8-26.6-4-5.2-14.7-10-20.2-11.7-20.2-6-46.9-3.4-62.4,17-4.9,6.5-8.6,16.9-8.4,26.1,0,1.4,0,2.7.1,4.1,2.3,1.1,4.7,7.4,7.1,10.6ZM282.8,131.2h1.3c-1.2,2.3-33.2,6-35.7,37.9,0,.4,0,.8,0,1.2-.7-.6-1-.8-1-2.1-.8-24.4,21.7-33.6,35.4-37.1Z"/>
  <path class="st3" d="M249.4,186c4.1,5.6,6.8,7.1,11.6,10.8,6.6,4.9,13.7,2.6,19.5,4.8,1.1-.7.6-.2,1.4-1.4-2-2.3-7.4-4-10.2-6.3-9.2-6.8-15-23.4-8.2-36,11.6-21.7,40.6-22.7,56.4-9.2,6.1,5.2,8.8,11.2,10.2,20,2.2-1.3,7.5-1.3,10.9-2.2,5.7-6.5-6.1-21.7-7.8-26.6-4-5.2-14.7-10-20.2-11.7-20.2-6-46.9-3.4-62.4,17-4.9,6.5-8.6,16.9-8.4,26.1,0,1.4,0,2.7.1,4.1,2.3,1.1,4.7,7.4,7.1,10.6ZM282.8,131.2h1.3c-1.2,2.3-33.2,6-35.7,37.9,0,.4,0,.8,0,1.2-.7-.6-1-.8-1-2.1-.8-24.4,21.7-33.6,35.4-37.1Z"/>
  <path class="st19" d="M280.5,201.5c-5.8-2.1-12.9.1-19.5-4.8-4.9-3.6-7.5-5.2-11.6-10.8-2.3-3.1-4.7-9.4-7.1-10.6,4.1,19.5,17.1,34.6,32.4,36.1,1.2-2.3,4.5-8.3,5.8-10Z"/>
  <path class="st16" d="M248.4,170.4c0-.4,0-.8,0-1.2,2.4-31.9,34.5-35.6,35.7-37.9h-1.3c-13.7,3.4-36.3,12.6-35.4,37,0,1.3.4,1.5,1,2.1Z"/>
  <path class="st17" d="M323.3,248.9l-120.3-.5c4.5,5.5,5.2,7.4,4.6,15.8h106.6c6.3-1.4,12.3-5.8,9.1-15.3ZM294.7,255.8c-11.1,1-71.6,3.4-78-.2-.7-.4-.7-1-.9-1.9,4.2-.5,10.9-.4,15.4-.4,12.2,0,24.5,0,36.7.5,5.6.1,23.2.1,27.4,1.3l-.5.8Z"/>
  <path class="st14" d="M231.1,253.3c-4.4,0-11.1,0-15.4.4.3.9.2,1.5.9,1.9,6.4,3.6,66.9,1.2,78,.2l.5-.8c-4.2-1.1-21.8-1.1-27.4-1.3-12.2-.4-24.5-.6-36.7-.5Z"/>
  <path class="st0" d="M310.1,199c-9.3,2.6-10.3,1.6-18.9,2.1,1.7.3,2.5.2,3.7,1.4.7,8,.1,28,.1,37,7,0,14.5.1,21.5-.2-.4-9.7-1-18-2.5-27.5-3-4.6-3.2-5-3.7-10.9l-.3-1.9Z"/>
  <path class="st17" d="M295,202.4c-1.2-1.2-2.1-1.1-3.7-1.4-2.4,0-3.5-.3-5.9-.9-9.3,15.9-8.5,19.3-10.4,39.3,6.6,0,13.6-.2,20.2,0,0-9,.6-29-.1-37ZM286.1,229.2h-.8s-.5-1-.5-1c-.3-6.2,1.3-16.8,3.1-22.6.5.3.6.5,1.1,1.1,1.4,5.8-.8,17-2.9,22.5Z"/>
  <path class="st14" d="M287.9,205.7c-1.8,5.7-3.4,16.3-3.1,22.6l.5,1h.8c2.1-5.5,4.3-16.7,2.9-22.5-.5-.5-.6-.7-1.1-1.1Z"/>
  <path class="st12" d="M314.1,264.2c17.1.5,37.9.7,54.9,0,4.7-1,13.7-2.1,17-6.5.4-4.7-10.4-7.8-13.3-8.7h-49.4c3.2,9.4-2.8,13.8-9.1,15.1Z"/>
  <path class="st19" d="M386,257.7c-3.3,4.4-12.2,5.5-17,6.5,8.8,1.2,21.2.8,30.4.7l.3-7.9c2.7-2.6,5.3-5.2,7.9-7.9-11.2-.4-23.7-.3-34.9,0,2.9.8,13.8,4,13.3,8.7Z"/>
  <path class="st11" d="M341,166.4c-3.4.9-8.7,1-10.9,2.2,0,8.3-1.6,14.4-6.2,20.4-3.8,4.9-8.6,8.4-13.8,9.9l.3,1.9c13,1.5,21.4-5.2,30.7-16.8,3.4-4.2,2.8-8.9,7.2-7.6.8-16-4.2-29.3-15.1-36.6,1.7,4.9,13.5,20,7.8,26.6Z"/>
  <path class="st8" d="M341,166.4c-3.4.9-8.7,1-10.9,2.2,0,8.3-1.6,14.4-6.2,20.4-3.8,4.9-8.6,8.4-13.8,9.9l.3,1.9c13,1.5,21.4-5.2,30.7-16.8,3.4-4.2,2.8-8.9,7.2-7.6.8-16-4.2-29.3-15.1-36.6,1.7,4.9,13.5,20,7.8,26.6Z"/>
  <path class="st19" d="M341.1,184c-9.3,11.6-17.7,18.3-30.7,16.8.4,5.9.7,6.3,3.7,10.9,5.7,2.8,18.6-6.8,23.1-11.6,6.1-6.5,10.2-13,11.1-23.6-4.4-1.4-3.8,3.4-7.2,7.6Z"/>
  <path class="st13" d="M194.3,249.4c-3.4,6.3-8.7,8-13.7,3.7-.4.6-.7,1.2-1.1,1.9-8.4,16,15.4,21.3,20.2,9.7,1-2.5,1.2-5.4.5-8.1-1-3.7-3.4-5.7-5.9-7.2Z"/>
  <path class="st14" d="M194.3,249.4c-5.4-1-9.5-1.8-13.7,3.7,5,4.3,10.3,2.6,13.7-3.7Z"/>
  <path class="st11" d="M405.2,273c-2.8.6-6.7,0-9.1,1.5l-.4,1c1.4,1.2,3.9,1.3,5.7,1.7,14.7,1.1,19.6-19.2,7.8-27.3-.6,3.9-.6,4.4.3,8.1,1.6,6.5,2,13.6-4.3,15Z"/>
  <path class="st7" d="M405.2,273c-2.8.6-6.7,0-9.1,1.5l-.4,1c1.4,1.2,3.9,1.3,5.7,1.7,14.7,1.1,19.6-19.2,7.8-27.3-.6,3.9-.6,4.4.3,8.1,1.6,6.5,2,13.6-4.3,15Z"/>
  <path class="st19" d="M566.7,67.1c.6-4.2,1.1-9.1,1.6-13.4-6.8-11.5-15.8-8.6-25.9-9.3-17.1-1.3-34.3-2.4-51.5-3,0-9.8.2-20.1.4-29.9-3.9-5.7-7.7-8.6-13.5-8.8-8.5-.2-17.1-.3-25.6-.3l-47.6-.2-141.4-.9-84.9-.6-25.2-.3c-9.6-.1-19.7-2.5-26,8.9v25.5c-11.9,0-23.7,0-35.5-.3-4.7,0-9.9,0-14.6-.2-17.8-.3-13.2,14.3-11.9,30.1-7.5.3-56.2,4.5-60.2,6.9-1.9,1.1-3.8,3-4.5,5.7,0,.3-.4,1.5-.4,1.7,0,2.5,15.4,70.8,17,77.9l28.7,133.6,8.2,37.7c.9,4.1,3.2,15.7,4.4,19.1,3.1-.3,3.4.7,6.3,2.9.2-5.6-10.7-51.8-12.4-59.8-14.2-63.6-26.6-128.6-41.4-192l-4.3-18.7c2.7-3.9,2.5-4.1,6.4-4.5,17.2-1.7,35.6-2.8,52.6-5.5,2.1,33.6,5.4,68.3,8,102,4.9,67.4,10.3,134.8,16,202.2,1.8,2.6,4.9,5.2,7.1,7.2-5.7-66.7-10.9-133.4-15.8-200.2-.9-13-1.9-26-3-39-.5-5.6-1.6-16.6-1.5-21.8-.4-8.5-1.7-20.6-2.4-29.2l-3.9-46.7c1.2-1.6,2.4-2.7,3.8-4,1.8-.1,3.8,0,5.7,0h47.6c0,15.2,0,30.4-.2,45.6,0,5.2,0,18.1-.5,22.8-.3,47.8-1,95.6-2,143.4l-1.8,150c1.1,1,5.3,4,6.7,5l4.6-395.7c4.8-7,13.7-5,20.4-4.9l25.2.3,77.9.6,222.2,1.4c2.4,1.7,3,2.3,5.1,4.6-.6,36.3,0,75.4,0,112.1l-.3,265.3c2.7-2.2,4.1-3.4,6.6-6v-11.6c-.3-41.7,0-84,0-125.7V47.4c7.3,0,21.3,0,27.8,1.2,12.7.9,25.6,2,38.3,1.7,1.8,1.5,3,2.2,4.2,4.6.7,4.4-5.3,45.2-6.3,52.7-7.3,55.1-14.9,110-22.7,165-3.6,25.9-7.1,51.8-11,77.6-.3,1.9-.4,2.7.1,4.4,1.5-1.9,4.9-4.9,6.8-6.8.7-6.7,2.5-16.9,3.5-24l8.7-61.1c8.9-63.3,17.4-126.6,25.5-190.1,6.2.2,12.4.3,18.5.3,2.7,0,8,.7,7.3,6.3-.8,6-2.2,12.2-3.2,18.2l-8.9,49.3c-12.5,69.6-26.2,140.2-38.3,209.7,1.6,2.8,3.2,5.7,4.7,8.7,4.8-22.4,9.3-49.5,13.4-72.3l19.8-107.2,13-72.1c1.7-9.6,5.3-27.5,6.1-36.8-3.3-12.4-22.9-9.3-31.6-9.5Z"/>
  <path class="st19" d="M65.4,69.5c-17,2.7-35.4,3.8-52.6,5.5-3.9.4-3.7.6-6.4,4.5l4.3,18.7.7-2.3c3.2,1.9,11.4,34.4,13.6,40.7,9.5,27.1,14,56.7,21.4,84.8,2.8,10.7,5.6,21.9,8,32.7,5.6,26.6,11.4,53.2,17.4,79.6,1.9,8.2,4.6,21.8,6.8,29.5,3,3.3,7.4,7.6,10.8,10.4-5.7-67.3-11.1-134.7-16-202.2-2.5-33.7-5.8-68.4-8-102ZM42.2,105.7c-.6-.4-1.3-1-2-1.4-.8-2.6-1.9-5.4-2.9-8,.4-1.5,2.3-3,3.4-4.2,1.5.8,3.1,1.8,3.7,3.8-.2,4-2.3,4.4-2.3,9.8Z"/>
  <path class="st4" d="M65.4,69.5c-17,2.7-35.4,3.8-52.6,5.5-3.9.4-3.7.6-6.4,4.5l4.3,18.7.7-2.3c3.2,1.9,11.4,34.4,13.6,40.7,9.5,27.1,14,56.7,21.4,84.8,2.8,10.7,5.6,21.9,8,32.7,5.6,26.6,11.4,53.2,17.4,79.6,1.9,8.2,4.6,21.8,6.8,29.5,3,3.3,7.4,7.6,10.8,10.4-5.7-67.3-11.1-134.7-16-202.2-2.5-33.7-5.8-68.4-8-102ZM42.2,105.7c-.6-.4-1.3-1-2-1.4-.8-2.6-1.9-5.4-2.9-8,.4-1.5,2.3-3,3.4-4.2,1.5.8,3.1,1.8,3.7,3.8-.2,4-2.3,4.4-2.3,9.8Z"/>
  <path class="st13" d="M54.4,254.2c-2.4-10.9-5.2-22-8-32.7-7.4-28.2-11.9-57.7-21.4-84.8-2.2-6.3-10.4-38.9-13.6-40.7l-.7,2.3c14.8,63.4,27.2,128.3,41.4,192,1.8,8,12.6,54.1,12.4,59.8,5,4.3,9.4,9.3,14.1,13.4-2.2-7.7-4.9-21.3-6.8-29.5-6-26.4-11.8-53-17.4-79.6Z"/>
  <path class="st14" d="M40.9,92.1c-1.2,1.2-3,2.6-3.4,4.2.9,2.6,2.1,5.4,2.9,8,.6.5,1.3,1,2,1.4,0-5.4,2.1-5.8,2.3-9.8-.6-2-2.3-3-3.7-3.8Z"/>
  <path class="st19" d="M521.1,350.1c3.8-25.8,7.3-51.7,11-77.6,7.8-54.9,15.4-109.9,22.7-165,1-7.5,7.1-48.3,6.3-52.7-1.1-2.3-2.4-3.1-4.2-4.6-12.7.3-25.6-.8-38.3-1.7-1.3,1.7-1.6,4.4-2.4,6.5-4.3,12.3-5.7,25.5-5.5,39.2.3,18.2-1.5,35.6-1.6,53.9,0,11.6,1.6,28.1.9,39.1-.8,12.1-3.9,17.9-4.1,32.2-.2,19.1,0,38.3,0,57.4-.3,20.1-.7,40.2-1.3,60.3-.2,5.7.2,24.4-.5,28.7l-.2,6.2c3.7-3.2,13.6-13.7,17.2-17.5-.5-1.7-.4-2.4-.1-4.4Z"/>
  <path class="st6" d="M521.1,350.1c3.8-25.8,7.3-51.7,11-77.6,7.8-54.9,15.4-109.9,22.7-165,1-7.5,7.1-48.3,6.3-52.7-1.1-2.3-2.4-3.1-4.2-4.6-12.7.3-25.6-.8-38.3-1.7-1.3,1.7-1.6,4.4-2.4,6.5-4.3,12.3-5.7,25.5-5.5,39.2.3,18.2-1.5,35.6-1.6,53.9,0,11.6,1.6,28.1.9,39.1-.8,12.1-3.9,17.9-4.1,32.2-.2,19.1,0,38.3,0,57.4-.3,20.1-.7,40.2-1.3,60.3-.2,5.7.2,24.4-.5,28.7l-.2,6.2c3.7-3.2,13.6-13.7,17.2-17.5-.5-1.7-.4-2.4-.1-4.4Z"/>
  <path class="st13" d="M80.9,132.7c5.3,28.2,9.3,56.7,13.9,85.1,3.1,14,8,35.7,11.6,49.1.2-14.8,2.6-31.4,3.4-46.8,2.7-51.8,7-105.3,2.9-157-1.6-19.4-22.5-16.6-33.2-16.5l-.3-6.8c-1.9,0-3.8,0-5.7,0-1.4,1.3-2.6,2.4-3.8,4l3.9,46.7c.7,8.6,2,20.7,2.4,29.2.3-1.5.5-2.5.6-4,1.6,5.6,3.2,11.1,4.3,16.9ZM98.5,123.7c2.1.3,3.1,1,4,3.4-.3,2.9-.3,2-1.9,4.6-2.3-.3-3.3-1.6-4-4.3.4-2.5.2-1.7,1.9-3.7ZM99.2,133.4c2.6.6,4.9,1.2,4.7,5.2-1,2.5-1.8,2.9-3.7,4.5-2.4-1-4.5-2-4.5-5.6.8-2.2,2-2.8,3.5-4.1Z"/>
  <path class="st14" d="M100.3,143.1c1.9-1.6,2.7-2,3.7-4.5.2-4-2.1-4.6-4.7-5.2-1.6,1.3-2.7,2-3.5,4.1,0,3.6,2.1,4.6,4.5,5.6Z"/>
  <path class="st14" d="M100.6,131.7c1.7-2.6,1.6-1.7,1.9-4.6-.9-2.4-1.9-3.1-4-3.4-1.8,2.1-1.6,1.2-1.9,3.7.7,2.7,1.7,4,4,4.3Z"/>
  <path class="st19" d="M504.7,337.1c.6-20.1,1.1-40.2,1.3-60.3.2-19.1-.1-38.2,0-57.4.2-14.3,3.3-20.1,4.1-32.2.7-11-1-27.5-.9-39.1,0-18.3,1.9-35.7,1.6-53.9-.3-13.6,1.1-26.8,5.5-39.2.8-2.1,1.1-4.8,2.4-6.5-6.5-1.2-20.6-1.1-27.7-1.2v199.5c-.2,41.8-.5,84-.2,125.7,2.8,0,10.5-5.1,13.4-6.9.6-4.2.3-22.9.5-28.7Z"/>
  <path class="st5" d="M504.7,337.1c.6-20.1,1.1-40.2,1.3-60.3.2-19.1-.1-38.2,0-57.4.2-14.3,3.3-20.1,4.1-32.2.7-11-1-27.5-.9-39.1,0-18.3,1.9-35.7,1.6-53.9-.3-13.6,1.1-26.8,5.5-39.2.8-2.1,1.1-4.8,2.4-6.5-6.5-1.2-20.6-1.1-27.7-1.2v199.5c-.2,41.8-.5,84-.2,125.7,2.8,0,10.5-5.1,13.4-6.9.6-4.2.3-22.9.5-28.7Z"/>
  <path class="st13" d="M490.8,372.6v11.6c3.6-2.3,10.2-8.6,13.2-12.3l.2-6.2c-3,1.8-10.6,6.8-13.4,6.9Z"/>
  <path class="st17" d="M118.7,356.4c.8-21.5,1.9-43.4,2.7-64.9,1.8-52.4-1-105.8,1.7-158,.2-3.9,1.2-38.6,1.3-38.8.3,5.1.6,10.1.8,15.2.5-2.5.7-12.9.8-16.2,0,4.9,0,9.6.3,14.5.5-4.7.4-17.6.5-22.8.1-15.2.2-30.4.2-45.5h-47.6s.3,6.8.3,6.8c10.7-.1,31.7-2.9,33.2,16.5,4.2,51.7-.2,105.2-2.9,157-.8,15.4-3.2,31.9-3.4,46.8-3.5-13.4-8.5-35.1-11.6-49.1-2,10.4,9.1,59,9.9,72.9,1.5,23.5,8.4,79.1,2.7,99.8,3.5,2.9,6.7,5.3,10.3,8-.8-11.3.5-30.1.9-42Z"/>
  <path class="st13" d="M126.2,108.2c-.2-4.9-.3-9.6-.3-14.5-.1,3.3-.3,13.6-.8,16.2-.2-5.1-.5-10.2-.8-15.2,0,.2-1.1,35-1.3,38.8-2.7,52.2.1,105.6-1.7,158-.7,21.5-1.9,43.4-2.7,64.9-.4,12-1.8,30.7-.9,42,1.6,1.1,3,2.1,4.6,3.1l1.8-150c1-47.8,1.7-95.6,2-143.4Z"/>
  <path class="st9" d="M588.3,97.3c1.1-6,2.4-12.2,3.2-18.2.7-5.5-4.6-6.2-7.3-6.3-1.9,1.7-3,4.2-4.7,6.3-9.6,11.9-12.8,25.5-14.6,42.5-5.5,51-13,101.5-19.1,152.3-2.8,23.2-1,46.5-5.2,69.3-.5,3.1.4,7.9-1.7,9.9.9,1.4,1.2,1.9,2.2,3.1,12-69.5,25.7-140,38.3-209.7l8.9-49.3Z"/>
  <path class="st12" d="M104.8,290.7c-.9-13.9-12-62.5-9.9-72.9-4.6-28.3-8.6-56.9-13.9-85.1-1.1-5.8-2.6-11.4-4.3-16.9-.1,1.5-.3,2.5-.6,4,0,5.2,1.1,16.2,1.5,21.8,1.1,13,2.1,26,3,39,4.9,66.8,10.2,133.6,15.8,200.2,3.6,3.1,7.4,6.6,11,9.6,5.7-20.6-1.2-76.3-2.7-99.8Z"/>
  <path class="st13" d="M545.9,273.9c6.1-50.8,13.6-101.3,19.1-152.3,1.8-16.9,5-30.5,14.6-42.5,1.7-2.1,2.8-4.6,4.7-6.3-6.2,0-12.4,0-18.5-.3-8.1,63.5-16.6,126.8-25.5,190.1l-8.7,61.1c-1,7-2.8,17.2-3.5,24,5.8-.9,6.8.2,11,5.5,2.1-2,1.1-6.8,1.7-9.9,4.2-22.9,2.4-46.1,5.2-69.3Z"/>
  <path class="st15" d="M206.7,30.7c-.4-.6-2.8-4.6-2.9-4.8-4.8,7.6-9.7,13.1-14.2,20-7.8,1.5-18.5,3.9-26.1,4.5,6.2,4.8,12.3,10.8,18.3,16.2-1.1,7-2.2,15.2-3.4,22,3.4-1.3,22.6-9.3,24.8-9.2,7.5,3.2,16.9,6.2,23.8,9.8-1.1-7.6-2.4-15.2-3.7-22.7,6.8-5.2,13.1-11.2,20-16.3-7.5-.4-19.2-3.2-26.8-4.8l-9.8-14.7Z"/>
  <path class="st17" d="M245.6,90.5c-.7,0-1.5,0-2.2.2-1.4,1.8-1.4,1.2-1.6,3.3.8,1.5,1.6,2.1,3.2,2.1,10.5.4,21.5.1,32,.1h68s59,0,59,0c5.9,0,23.5.6,28.9-.4l1.3-1.6v-1.4c-2.5-3.2-25.2-2.1-30.2-2.2-17.4-.2-34.9-.3-52.3-.2h-69.8c-11.8,0-24.7-.4-36.3,0Z"/>
  <path class="st17" d="M267.8,73.6c7.2,2.1,18,1.1,25.3,1.1h35.6c20.2.1,43.3,1.1,63.2.3,1.7-1.3,1.7-.9,2.5-2.8-.4-1.5-.6-1.7-1.7-2.3-3.3-1.7-112.9-1.3-123.4-1.3-1.9,1.3-2,.9-2.8,2.9.3,1,.5,1.9,1.4,2.2Z"/>
  <path class="st17" d="M433.6,116.8c-4.2-1.9-28-1.1-33.6-1.2-21.7-.3-43.6.3-65.4-.3,2.9,2.1,6.1,5.2,9.4,5.8,5.7,1,86.6,1,89.9-.3.4-.2.6-.3.9-.5,0-2.6.3-1.4-1.2-3.4Z"/>
  <path class="st9" d="M434.7,307.1c-.5-1.2-1-2.3-2.1-2.4-28.2-2.4-58,.2-86.1-1.2,0,2.2-.2,4.1.5,5.9,9.2.7,83,1.4,87.1-.7l.7-1.7Z"/>
  <path class="st13" d="M430.9,328.9c-9-.6-18.1-.4-27.1-.4h-55.6c0,2.5-.2,3.7.6,5.6,8.7,1,29.1.5,37.9.4,8.6-.2,42.5,1.6,48.1-1.7,0-3.1-1.9-3.8-3.9-3.9Z"/>
  <path class="st9" d="M433.1,359.3c0,0,.2,0,.2,0l.6-2c-.6-1.6-1.2-2.2-2.5-2.8-4.3-2.1-70.5-.8-80.1-.3,0,1.8,0,3.3.7,4.8,6.5,1.7,75,1.9,81.1.3Z"/>
  <path class="st9" d="M434.7,380.8c-1.4-3-4.1-3-6.7-3.1-7.1-.2-14.3,0-21.4,0-18,0-35.9,0-53.9.4,0,2.7-.3,3.2.6,5.1,9.7,1,75.1,2.1,81-.6l.4-1.7Z"/>
  <path class="st9" d="M243.6,304.8c-1.3-1.6-4.2-1.6-5.9-1.5-20.6,1.1-42.2-1.3-62.6,0-1.9,1.7-1.9,1.1-2.7,3.5,1,3,3.5,3.3,5.7,3.3,21.2,0,42.6-.1,63.8-.1l1.3-.2c.7-1.6.5-3.1.4-5.1Z"/>
  <path class="st17" d="M252.3,117.3l5-2.9-81.1-.3c-1.8,1.4-1.7.9-2.5,2.9.9,3.4,5.4,3,7.8,3.1,21.8,0,43.6.2,65.4,0,2,0,3.8-1.4,5.4-2.8Z"/>
  <path class="st16" d="M427.1,408.7c2.7-.3,5.3,0,7-3.3-.4-1.3,0-.9-1-1.4-4.8-2.6-62.4-1.4-71.5-1.1-2.5.1-6.2-.4-7.5,2.8,1.4,3.7,15.9,2.7,19.1,2.8,18,.4,36,.5,54,.2Z"/>
  <path class="st17" d="M434.7,140.3c-1.6-1.1-3-1.6-4.9-1.6-23.1-.8-46.2.2-69.3-.2,1.3,1.9,2.9,4.2,4.1,6.2,10.5,0,64.9,1.5,70.2-1.1.2,0,.3-.2.5-.2.2-2.2.4-1.3-.5-3Z"/>
  <path class="st13" d="M352.1,215.4l78.3.2c2-.3,2-.1,3.6-1.4l.5-1.1c-2.4-5.4-21.1-3.3-26.3-3.4-16.7-.2-33.4-.3-50.1-.2-2,2.1-3.8,4.1-5.9,6Z"/>
  <path class="st9" d="M180.7,359.6c19.5,0,39.2,0,58.7-.2l1.1-.6c.6-2.7.7-1.5.2-3.8-1.8-1.5-4.6-1.5-6.6-1.5-19.6.6-40-1.3-59.6-.3-1.6,1.8-1.7,1.4-2.3,3.7,1.8,2.5,6,2.7,8.5,2.7Z"/>
  <path class="st13" d="M234.6,328.5c-19.3,1.6-40.6-1.8-59.7,0-1.3,1.3-2,1.4-2.3,3,1.8,2.7,3.9,2.9,6.5,2.9,20.3-.3,41,1,61.2,0l1.3-.2c.6-1.3.5-2,.6-3.6-1.5-2.5-5.4-2.3-7.7-2.1Z"/>
  <path class="st9" d="M239,382.4c.6-2,.6-1.9.6-4-1.6-1.5-5-1.3-7-1.2-19.1.8-38.6-1-57.6,0-1.8,1.7-1.9,1.2-2.5,3.4,2.4,4.5,19.8,3,24.7,2.9,13.6,0,27.2-.2,40.8-.7l1-.4Z"/>
  <path class="st17" d="M423.6,161c-17.7,0-35.5.2-53.3,0,.3,2.1.4,4.8,1.4,6.2,6.6.5,59.6.4,63.2-1.3l.4-1.5c-1.5-4.3-8.5-3.3-11.8-3.3Z"/>
  <path class="st16" d="M229.7,402.2c-18.1.2-36.7-1.3-54.8-.3l-1.8,1.7-.2,1.4c2.9,5,18,3.3,22.9,3.3,13.3,0,26.5-.3,39.8-1l1.2-.2c.8-2.1.6-1,.5-3.4-1.7-1.8-5.3-1.5-7.5-1.5Z"/>
  <path class="st13" d="M172.3,210.8c1.8,2.5,5,2.7,7.6,2.7,17.9.1,36,.1,53.9,0h2.1c0-.1.2-.9.2-.9-1.2-2.1-2.6-3.5-4.1-5.3l-56.5-.5c-1.5.7-2.2.8-3.1,2.5v1.3Z"/>
  <path class="st17" d="M175.7,142.1c5.7,2.3,42.3,1,50.6,1.1,1.2-2.3,2-3.9,3.5-6-17.1-.5-36.7-1-53.9-.4-1.8,1.4-1.8.8-2.6,2.9.6,1.5,1,2,2.3,2.5Z"/>
  <path class="st17" d="M419.5,190.8c1.2-2.4,1.2-1.7,1.1-4-2.6-3-43.7-1.6-50.3-1.7l-1.5,6.2c15,0,36.2.7,50.7-.5Z"/>
  <path class="st13" d="M179.2,188.3c13.7.3,27.6,0,41.4.1l1.1-.3c.2-2.1-.5-3.8-1-5.9-14.4,0-30.9-.6-45.1,0-1.2,1.1-2.1,1.6-2.5,3.3,1,2.6,4.1,2.8,6.1,2.9Z"/>
  <path class="st17" d="M304.5,57.5c1.3.2,9.2.1,10.7,0,.6,0,1.1-.1,1.7-.2l1.5-1.5c0-3.1-2.7-3.5-4.6-3.7-8.5-.6-17.1-.1-25.7-.2-5.3.1-15.3-.4-20.1.2l-1.5,1.9v1.2c3.9,4.3,31.7,1.4,38.1,2.3Z"/>
  <path class="st17" d="M173.4,162.5c4,4.4,36.3,2.6,43.8,2.5l2-.2c1-1.7,1-1.6,1.3-3.7l-.4-1.4c-3.2-.9-11.2-.6-14.7-.6-9.5,0-19,.2-28.5-.1-1.8.6-2.1.6-3.5,2.3v1.2Z"/>
  <path class="st13" d="M435.3,236.7c-2.3-3.6-9-2.7-12.4-2.3,4.5,3.6,7.1,7.2,12.2,4.1l.2-1.8Z"/>
  <path class="st16" d="M392.4,429.7c1.7,2.7,3.5,1.7,6,1.3l.9-1.4c-.4-3.3-3.7-3.8-5.9-4-.9,1.9-1.1,1.9-1,4.1Z"/>
  <path class="st13" d="M456.9,376.7c1.3,1.4,1.9,1.5,3.6,1.7,1.4-2.2,1.3-1.4,1.3-3.6-1.3-1.7-2.7-1.5-4.6-1.6-.8,2.3-.8,1.2-.3,3.5Z"/>
  <path class="st13" d="M151.9,378c-.9.2-1.6,1.1-1.8,2.2-.2,1.1.1,2.3.8,3,.7.7,1.6.8,2.4.2.9-.7,1.4-2.2,1-3.5-.4-1.4-1.4-2.2-2.5-1.9Z"/>
  <path class="st13" d="M151.6,173.6c.8.4,1.6.3,2.3-.4.9-1,1-2.7.4-3.9s-1.9-1.6-2.9-.8c-.7.6-1.1,1.6-1.1,2.7,0,1.1.6,2.1,1.3,2.5Z"/>
  <path class="st9" d="M155.7,81.2c-.6-2.7-2-2.6-3.9-3-1,2.4-1,1.3-.6,3.5,1.4,1.3,1.9,1.2,3.6,1.4l.9-1.8Z"/>
  <path class="st13" d="M461.5,191c-1.5-1-1.5-.9-3.2-1.1-1.1,2.4-1.1,1.3-.8,3.4,1.2,1.1,2.2,1.1,3.6,1.4.9-2.7.9-1.5.4-3.7Z"/>
  <path class="st9" d="M149.6,315.5c.6-.1.9,0,1.4-.4,1.7-1.6,2.3-1.6,3-3.7-.8-1.1-.7-1.1-1.8-1.4-1.2,1.6-2.1,2.7-2.7,4.8l.2.7Z"/>
</svg>